<?xml version="1.0" standalone="no"?>
<!DOCTYPE svg PUBLIC "-//W3C//DTD SVG 20010904//EN"
 "http://www.w3.org/TR/2001/REC-SVG-20010904/DTD/svg10.dtd">
<svg version="1.0" xmlns="http://www.w3.org/2000/svg"
 width="400.000000pt" height="400.000000pt" viewBox="0 0 400.000000 400.000000"
 preserveAspectRatio="xMidYMid meet">
<metadata>
Created by potrace 1.15, written by Peter Selinger 2001-2017
</metadata>
<g transform="translate(0.000000,400.000000) scale(0.100000,-0.100000)"
fill="#000000" stroke="none">
<path d="M1945 3504 c-11 -3 -40 -12 -65 -20 -25 -9 -51 -18 -59 -20 -25 -8 3
-26 61 -38 l53 -12 3 -72 c2 -40 1 -72 -2 -72 -2 0 -50 -5 -107 -11 -177 -18
-322 -57 -472 -126 l-58 -27 -26 26 -25 26 -35 -21 -35 -20 26 -25 25 -25 -69
-49 c-38 -26 -71 -48 -72 -48 -14 0 -159 -152 -211 -220 -163 -218 -252 -412
-293 -640 -23 -129 -24 -373 -1 -500 49 -268 184 -529 375 -728 l72 -76 -106
-268 c-59 -147 -104 -271 -100 -275 4 -4 28 1 54 11 74 29 107 31 147 7 20
-12 42 -21 49 -21 8 0 26 34 41 78 15 42 47 132 72 198 l44 122 92 -49 c204
-107 404 -154 657 -153 245 1 403 38 617 145 l112 55 44 -120 c25 -67 57 -156
72 -198 15 -44 33 -78 41 -78 7 0 29 9 49 21 40 24 73 22 147 -7 26 -10 50
-15 54 -11 4 4 -41 127 -99 274 l-107 268 81 85 c171 182 294 407 348 640 94
404 13 819 -226 1153 -50 70 -253 287 -268 287 -3 0 -37 22 -75 48 l-69 49 25
25 26 25 -35 20 -35 21 -25 -26 -26 -25 -68 31 c-37 17 -81 34 -98 38 -16 4
-35 11 -41 16 -20 15 -195 56 -269 62 -38 4 -85 9 -103 12 l-33 5 3 72 3 71
58 14 c34 9 56 19 54 26 -8 24 -146 60 -192 50z m270 -653 c386 -95 674 -397
755 -791 18 -87 21 -126 17 -225 -13 -273 -106 -485 -296 -676 -152 -152 -308
-235 -522 -280 -186 -38 -399 -15 -586 64 -230 97 -433 300 -530 530 -191 454
-34 970 377 1242 117 76 250 126 430 159 57 11 278 -3 355 -23z"/>
<path d="M1363 2434 c-4 -11 66 -88 249 -272 250 -252 255 -258 242 -282 -39
-73 26 -170 113 -170 40 0 91 34 110 75 l17 35 290 2 c283 3 291 4 291 23 0
19 -8 20 -295 23 l-295 2 -17 30 c-25 44 -79 67 -127 54 l-39 -11 -254 254
c-139 139 -259 253 -266 253 -7 0 -15 -7 -19 -16z"/>
</g>
</svg>
